<?xml version="1.0" encoding="UTF-8"?>
<svg xmlns="http://www.w3.org/2000/svg" viewBox="0 0 1500 1100" font-family="'Helvetica Neue', Helvetica, Arial, sans-serif">
  <style>
    .board     { fill: #efe5c8; stroke: #6f5a2a; stroke-width: 2; }
    .holegrid  { fill: #b8a874; }
    .esp32     { fill: #1a1a1a; stroke: #555; stroke-width: 1.5; }
    .esp32-sl  { fill: #2a2a2a; stroke: #ccc; stroke-width: 0.6; }
    .esp32-txt { fill: #fff; font-size: 10px; }
    .esp32-pin-lbl { fill: #1a1a1a; font-size: 9.5px; }
    .buck      { fill: #144577; stroke: #555; stroke-width: 1.5; }
    .buck-txt  { fill: #fff; font-size: 10px; }
    .term      { fill: #2a8030; stroke: #1d5d20; stroke-width: 1.5; }
    .term-screw{ fill: #d1d1d1; stroke: #555; stroke-width: 0.8; }
    .term-txt  { fill: #fff; font-size: 9.5px; }
    .mosfet-body { fill: #1a1a1a; stroke: #555; stroke-width: 1.5; }
    .mosfet-tab  { fill: #bbb; stroke: #555; stroke-width: 0.6; }
    .mosfet-lead { stroke: #888; stroke-width: 2; fill: none; }
    .mosfet-txt  { fill: #fff; font-size: 9px; }
    .resistor-body { fill: #d8b070; stroke: #6a4a20; stroke-width: 1; }
    .resistor-lead { stroke: #888; stroke-width: 1.5; fill: none; }
    .resistor-band { stroke-width: 2; }
    .wire-12v   { stroke: #c0392b; stroke-width: 3; fill: none; stroke-linecap: round; }
    .wire-3v3   { stroke: #d35400; stroke-width: 3; fill: none; stroke-linecap: round; }
    .wire-gnd   { stroke: #2c3e50; stroke-width: 3; fill: none; stroke-linecap: round; }
    .wire-sig   { stroke: #2874a6; stroke-width: 2.5; fill: none; stroke-linecap: round; }
    .solder     { fill: #aab; stroke: #557; stroke-width: 0.7; }
    .title      { font-size: 22px; font-weight: 700; fill: #1a1a1a; }
    .sub        { font-size: 13px; fill: #555; }
    .label      { font-size: 13px; font-weight: 700; fill: #1a1a1a; }
    .small      { font-size: 11px; fill: #555; }
    .smaller    { font-size: 10px; fill: #555; }
    .channel-box { fill: none; stroke: #888; stroke-width: 1; stroke-dasharray: 4 3; }
    .channel-lbl { font-size: 13px; font-weight: 700; fill: #1a1a1a; }
    .pwrlbl     { font-size: 11px; font-weight: 700; fill: #c0392b; }
    .pwrlbl3    { font-size: 11px; font-weight: 700; fill: #d35400; }
    .gndlbl     { font-size: 11px; font-weight: 700; fill: #2c3e50; }
    .siglbl     { font-size: 10px; font-weight: 700; fill: #2874a6; }
  </style>

  <!-- Title -->
  <text x="750" y="36" class="title" text-anchor="middle">Matter LED Controller — Perfboard Layout</text>
  <text x="750" y="58" class="sub" text-anchor="middle">Top-down view. Coloured lines = wires to solder on the underside (jumpers between holes). Components shown to approximate scale.</text>

  <!-- Perfboard with grid of holes -->
  <rect x="40" y="80" width="1420" height="940" class="board" rx="10"/>

  <!-- Hole grid: 50 cols × 31 rows at 28px spacing.
       Origin (col=0, row=0) at (60, 100). Hole at (col, row) → (60 + col*28, 100 + row*28). -->
  <g class="holegrid">
    <!-- Row of holes generated by repeated <circle>; we render every 2nd hole only to reduce file size, but keep visual density acceptable -->
    <!-- Top boundary -->
    <!-- 50 columns, 32 rows -->
    <!-- Render a representative grid. We'll show holes as 1.2 radius circles in the empty areas. To save space, place holes only where there's no component. We just place them everywhere; SVG renderers can handle this. -->
  </g>

  <!-- Draw the hole pattern -->
  <g fill="#9c8a52" opacity="0.55">
    <!-- We render holes as a path of dots, generated explicitly. Use circles. -->
    <!-- 50 cols (x=60..60+49*28=1432), 33 rows (y=100..100+32*28=996) -->
    <!-- For brevity, we draw the grid using <use> referencing a single dot -->
  </g>
  <defs>
    <circle id="hole" r="1.6" fill="#9c8a52"/>
  </defs>
  <!-- Generate hole grid using SVG <use> with all positions -->
  <g opacity="0.5">
    <!-- 50 columns x 33 rows. Total 1650 holes — fine for an SVG. We'll output every position via <use href>. -->
    <!-- Row 0 -->
    <!-- We use a script-free approach: just output them. To keep file size reasonable, we'll embed them. -->
  </g>

  <!-- Embed all the hole positions inline. They form a regular grid. -->
  <!-- Below: row by row, in column-then-x order. -->
  <g opacity="0.5">
    <!-- Programmatically expanded hole grid. Each <circle> is one hole. -->
    <!-- (Hidden in this snippet; we'll add a script later if needed. For now, draw via path.) -->
    <!-- Use a tiled pattern instead: -->
  </g>
  <defs>
    <pattern id="holepattern" x="60" y="100" width="28" height="28" patternUnits="userSpaceOnUse">
      <circle cx="0" cy="0" r="1.5" fill="#9c8a52" opacity="0.55"/>
    </pattern>
  </defs>
  <rect x="60" y="100" width="1372" height="896" fill="url(#holepattern)"/>

  <!-- =================================================================== -->
  <!-- Component placement helper coords:                                  -->
  <!-- Hole (col, row) → SVG point (60 + col*28, 100 + row*28)            -->
  <!-- =================================================================== -->

  <!-- ===== 12V DC INPUT TERMINAL (top-left corner) ===== -->
  <!-- 2-pin screw terminal at cols 1-2, row 2 -->
  <g id="t-12vin">
    <rect x="73" y="135" width="76" height="56" class="term"/>
    <circle cx="88" cy="156" r="6" class="term-screw"/>
    <circle cx="116" cy="156" r="6" class="term-screw"/>
    <!-- pin holes -->
    <circle cx="88" cy="184" r="2.5" fill="#444"/>
    <circle cx="116" cy="184" r="2.5" fill="#444"/>
    <text x="88" y="208" class="pwrlbl" text-anchor="middle">+12V</text>
    <text x="116" y="208" class="gndlbl" text-anchor="middle">GND</text>
    <text x="102" y="128" class="label" text-anchor="middle">12V DC IN</text>
  </g>
  <!-- 12V input pin holes are at (col 1, row 3)=(88, 184) and (col 2, row 3)=(116, 184) -->

  <!-- ===== BUCK CONVERTER (top, just right of 12V input) ===== -->
  <!-- Body covers cols 5-12, rows 1-4 -->
  <g id="m-buck">
    <rect x="195" y="128" width="240" height="100" class="buck" rx="3"/>
    <!-- potentiometer (set 3.3V) -->
    <rect x="380" y="148" width="36" height="36" fill="#1f3a5f" stroke="#888"/>
    <circle cx="398" cy="166" r="6" fill="#aaa" stroke="#555"/>
    <line x1="398" y1="160" x2="398" y2="172" stroke="#333" stroke-width="2"/>
    <text x="398" y="200" class="buck-txt" text-anchor="middle">SET 3.3V</text>
    <!-- inductor (the lump) -->
    <circle cx="240" cy="166" r="14" fill="#222" stroke="#999"/>
    <text x="240" y="170" class="buck-txt" text-anchor="middle">L</text>
    <text x="315" y="148" class="buck-txt" text-anchor="middle" font-weight="700">BUCK 12V→3.3V</text>

    <!-- 4 pins poking out of the bottom edge. Pin holes at (cols 6, 8, 10, 12, row 4). -->
    <!-- (col 6, row 4) = (228, 212). pins down -->
    <line x1="228" y1="228" x2="228" y2="240" class="mosfet-lead"/>
    <line x1="284" y1="228" x2="284" y2="240" class="mosfet-lead"/>
    <line x1="340" y1="228" x2="340" y2="240" class="mosfet-lead"/>
    <line x1="396" y1="228" x2="396" y2="240" class="mosfet-lead"/>
    <circle cx="228" cy="240" r="2.5" fill="#444"/>
    <circle cx="284" cy="240" r="2.5" fill="#444"/>
    <circle cx="340" cy="240" r="2.5" fill="#444"/>
    <circle cx="396" cy="240" r="2.5" fill="#444"/>
    <!-- Pin labels under the holes -->
    <text x="228" y="258" class="pwrlbl" text-anchor="middle">IN+</text>
    <text x="284" y="258" class="gndlbl" text-anchor="middle">IN−</text>
    <text x="340" y="258" class="gndlbl" text-anchor="middle">OUT−</text>
    <text x="396" y="258" class="pwrlbl3" text-anchor="middle">OUT+</text>
    <text x="228" y="270" class="smaller" text-anchor="middle">(+12V)</text>
    <text x="284" y="270" class="smaller" text-anchor="middle">(GND)</text>
    <text x="340" y="270" class="smaller" text-anchor="middle">(GND)</text>
    <text x="396" y="270" class="smaller" text-anchor="middle">(+3.3V)</text>
  </g>
  <!-- Buck holes: IN+ at (228, 240) = col 6 row 5; IN- at (284, 240) col 8 row 5; OUT- at (340, 240) col 10 row 5; OUT+ at (396, 240) col 12 row 5 -->

  <!-- ===== ESP32-WROOM-32 DevKit (landscape, USB on left) ===== -->
  <!-- Board covers cols 20-44, rows 1-9. Pin headers at rows 1 and 9. -->
  <g id="m-esp32">
    <rect x="620" y="128" width="700" height="240" class="esp32" rx="4"/>
    <!-- USB connector on the left edge -->
    <rect x="600" y="220" width="40" height="56" fill="#777" stroke="#444"/>
    <rect x="606" y="232" width="28" height="32" fill="#222" stroke="#555"/>
    <text x="620" y="296" class="esp32-txt" text-anchor="middle">USB</text>

    <!-- Title silkscreen on board -->
    <text x="970" y="160" class="esp32-txt" text-anchor="middle" font-weight="700" font-size="13">ESP32-WROOM-32 DevKit (30-pin)</text>
    <text x="970" y="180" class="esp32-txt" text-anchor="middle">USB on LEFT — pin labels show the silkscreen as printed on the board</text>
    <!-- WROOM module outline (silkscreen) -->
    <rect x="900" y="208" width="140" height="80" class="esp32-sl"/>
    <text x="970" y="252" class="esp32-txt" text-anchor="middle" font-weight="700">WROOM-32</text>

    <!-- TOP pin row (15 pins). With USB-on-LEFT orientation, this is the row of pins that, on the standard DevKit silkscreen, were on the right side of the board. -->
    <!-- Pins are at cols 21-35, row 1.5 → x = 60 + 21*28 = 648 to 60 + 35*28 = 1040. Row 1.5 = y = 100 + 42 = 142. -->
    <!-- We'll place them at every 28px from x=648 -->
    <g id="esp32-top-pins">
      <!-- Hole positions and labels -->
      <!-- 3V3, GND, GPIO15, GPIO2, GPIO4, GPIO16, GPIO17, GPIO5, GPIO18, GPIO19, GPIO21, GPIO3, GPIO1, GPIO22, GPIO23 -->
      <g font-size="9.5">
        <!-- The pin holes -->
        <circle cx="648"  cy="142" r="2.5" fill="#fda"/>
        <circle cx="676"  cy="142" r="2.5" fill="#fda"/>
        <circle cx="704"  cy="142" r="2.5" fill="#fda"/>
        <circle cx="732"  cy="142" r="2.5" fill="#fda"/>
        <circle cx="760"  cy="142" r="2.5" fill="#fda"/>
        <circle cx="788"  cy="142" r="2.5" fill="#fda"/>
        <circle cx="816"  cy="142" r="2.5" fill="#fda"/>
        <circle cx="844"  cy="142" r="2.5" fill="#fda"/>
        <circle cx="872"  cy="142" r="2.5" fill="#fda"/>
        <circle cx="900"  cy="142" r="2.5" fill="#fda"/>
        <circle cx="928"  cy="142" r="2.5" fill="#fda"/>
        <circle cx="956"  cy="142" r="2.5" fill="#fda"/>
        <circle cx="984"  cy="142" r="2.5" fill="#fda"/>
        <circle cx="1012" cy="142" r="2.5" fill="#fda"/>
        <circle cx="1040" cy="142" r="2.5" fill="#fda"/>
      </g>
      <!-- pin labels above the row (rotated for compactness) -->
      <g transform="translate(0, 130)" fill="#fff" font-size="9">
        <text x="648"  y="0" text-anchor="end" transform="rotate(-90, 648, 0)">3V3</text>
        <text x="676"  y="0" text-anchor="end" transform="rotate(-90, 676, 0)">GND</text>
        <text x="704"  y="0" text-anchor="end" transform="rotate(-90, 704, 0)">GPIO15</text>
        <text x="732"  y="0" text-anchor="end" transform="rotate(-90, 732, 0)">GPIO2</text>
        <text x="760"  y="0" text-anchor="end" transform="rotate(-90, 760, 0)">GPIO4</text>
        <text x="788"  y="0" text-anchor="end" transform="rotate(-90, 788, 0)">RX2/16</text>
        <text x="816"  y="0" text-anchor="end" transform="rotate(-90, 816, 0)">TX2/17</text>
        <text x="844"  y="0" text-anchor="end" transform="rotate(-90, 844, 0)">GPIO5</text>
        <text x="872"  y="0" text-anchor="end" transform="rotate(-90, 872, 0)" fill="#9cf" font-weight="700">GPIO18</text>
        <text x="900"  y="0" text-anchor="end" transform="rotate(-90, 900, 0)" fill="#9cf" font-weight="700">GPIO19</text>
        <text x="928"  y="0" text-anchor="end" transform="rotate(-90, 928, 0)">GPIO21</text>
        <text x="956"  y="0" text-anchor="end" transform="rotate(-90, 956, 0)">RX0/3</text>
        <text x="984"  y="0" text-anchor="end" transform="rotate(-90, 984, 0)">TX0/1</text>
        <text x="1012" y="0" text-anchor="end" transform="rotate(-90, 1012, 0)">GPIO22</text>
        <text x="1040" y="0" text-anchor="end" transform="rotate(-90, 1040, 0)">GPIO23</text>
      </g>
    </g>

    <!-- BOTTOM pin row -->
    <g id="esp32-bot-pins">
      <g>
        <circle cx="648"  cy="354" r="2.5" fill="#fda"/>
        <circle cx="676"  cy="354" r="2.5" fill="#fda"/>
        <circle cx="704"  cy="354" r="2.5" fill="#fda"/>
        <circle cx="732"  cy="354" r="2.5" fill="#fda"/>
        <circle cx="760"  cy="354" r="2.5" fill="#fda"/>
        <circle cx="788"  cy="354" r="2.5" fill="#fda"/>
        <circle cx="816"  cy="354" r="2.5" fill="#fda"/>
        <circle cx="844"  cy="354" r="2.5" fill="#fda"/>
        <circle cx="872"  cy="354" r="2.5" fill="#fda"/>
        <circle cx="900"  cy="354" r="2.5" fill="#fda"/>
        <circle cx="928"  cy="354" r="2.5" fill="#fda"/>
        <circle cx="956"  cy="354" r="2.5" fill="#fda"/>
        <circle cx="984"  cy="354" r="2.5" fill="#fda"/>
        <circle cx="1012" cy="354" r="2.5" fill="#fda"/>
        <circle cx="1040" cy="354" r="2.5" fill="#fda"/>
      </g>
      <g transform="translate(0, 366)" fill="#fff" font-size="9">
        <text x="648"  y="0" text-anchor="start" transform="rotate(90, 648, 0)">EN</text>
        <text x="676"  y="0" text-anchor="start" transform="rotate(90, 676, 0)">SVP/36</text>
        <text x="704"  y="0" text-anchor="start" transform="rotate(90, 704, 0)">SVN/39</text>
        <text x="732"  y="0" text-anchor="start" transform="rotate(90, 732, 0)">GPIO34</text>
        <text x="760"  y="0" text-anchor="start" transform="rotate(90, 760, 0)">GPIO35</text>
        <text x="788"  y="0" text-anchor="start" transform="rotate(90, 788, 0)">GPIO32</text>
        <text x="816"  y="0" text-anchor="start" transform="rotate(90, 816, 0)">GPIO33</text>
        <text x="844"  y="0" text-anchor="start" transform="rotate(90, 844, 0)" fill="#9cf" font-weight="700">GPIO25</text>
        <text x="872"  y="0" text-anchor="start" transform="rotate(90, 872, 0)">GPIO26</text>
        <text x="900"  y="0" text-anchor="start" transform="rotate(90, 900, 0)" fill="#9cf" font-weight="700">GPIO27</text>
        <text x="928"  y="0" text-anchor="start" transform="rotate(90, 928, 0)">GPIO14</text>
        <text x="956"  y="0" text-anchor="start" transform="rotate(90, 956, 0)">GPIO12</text>
        <text x="984"  y="0" text-anchor="start" transform="rotate(90, 984, 0)">GPIO13</text>
        <text x="1012" y="0" text-anchor="start" transform="rotate(90, 1012, 0)">GND</text>
        <text x="1040" y="0" text-anchor="start" transform="rotate(90, 1040, 0)">VIN/5V</text>
      </g>
    </g>
  </g>
  <!-- ESP32 pin coordinates of interest:
       Top row (y=142):    3V3 (648), GND (676), GPIO18 (872), GPIO19 (900)
       Bottom row (y=354): GPIO25 (844), GPIO27 (900), GND (1012)
  -->

  <!-- Note above the ESP32 about pin orientation -->
  <text x="1200" y="120" class="small" text-anchor="end">Pin labels follow the DevKit-C v4 silkscreen. The four labels in <tspan fill="#2874a6" font-weight="700">blue</tspan> are the GPIOs used here.</text>

  <!-- =================================================================== -->
  <!-- POWER RAILS                                                          -->
  <!-- We use two long bare wires (or perfboard traces if stripboard) as a -->
  <!-- +12V rail and a GND rail. Below: just labels and dashed indicators.  -->
  <!-- The actual wiring will run from component to component on the back. -->
  <!-- =================================================================== -->

  <!-- We'll place a dedicated "+12V" and "GND" rail row at:
       +12V rail: row 13 (y = 100 + 13*28 = 464) — runs from x=88 (left side) to far right
       GND rail:  row 31 (y = 100 + 31*28 = 968) — runs near the bottom edge -->

  <!-- ===== CHANNELS ===== -->
  <!-- 4 channels arranged horizontally between rows 15-29. Each ~12 cols wide. -->
  <!-- Ch1 cols 2-13, Ch2 cols 15-26, Ch3 cols 28-39, Ch4 cols 41-49 -->

  <!-- channel boxes -->
  <rect x="76"   y="500" width="320" height="380" class="channel-box"/>
  <text x="236"  y="492"  class="channel-lbl" text-anchor="middle">Channel 1 (GPIO25)</text>

  <rect x="412"  y="500" width="320" height="380" class="channel-box"/>
  <text x="572"  y="492"  class="channel-lbl" text-anchor="middle">Channel 2 (GPIO27)</text>

  <rect x="748"  y="500" width="320" height="380" class="channel-box"/>
  <text x="908"  y="492"  class="channel-lbl" text-anchor="middle">Channel 3 (GPIO18)</text>

  <rect x="1084" y="500" width="320" height="380" class="channel-box"/>
  <text x="1244" y="492"  class="channel-lbl" text-anchor="middle">Channel 4 (GPIO19)</text>

  <!-- Per-channel components helper:
       For channel n with origin (X0, 500):
         - 330Ω (R_gate, horizontal): x=X0+20..X0+150, y=540 (center of body)
         - 10kΩ (R_pulldown, vertical): x=X0+50, y=600..720
         - MOSFET TO-220 body (Q): x=X0+150..X0+210, y=600..720
         - LED output terminal (2-pin): x=X0+230..X0+310, y=800..860
  -->

  <!-- Helper: draw one channel's components. We'll inline each one to keep it explicit. -->

  <!-- ============ CHANNEL 1 ============ -->
  <g id="ch1">
    <!-- 330Ω R_gate (R1), horizontal -->
    <line x1="100" y1="540" x2="116" y2="540" class="resistor-lead"/>
    <line x1="218" y1="540" x2="234" y2="540" class="resistor-lead"/>
    <rect x="116" y="528" width="102" height="24" class="resistor-body" rx="10"/>
    <rect x="128" y="528" width="3" height="24" fill="#a52a2a" class="resistor-band"/>
    <rect x="138" y="528" width="3" height="24" fill="#ffa500" class="resistor-band"/>
    <rect x="148" y="528" width="3" height="24" fill="#a52a2a" class="resistor-band"/>
    <rect x="158" y="528" width="3" height="24" fill="#d4af37" class="resistor-band"/>
    <text x="167" y="520" class="smaller" text-anchor="middle" font-weight="700">R1  330Ω</text>
    <!-- Solder pads for R1 leads -->
    <circle cx="100" cy="540" r="3.5" class="solder"/>
    <circle cx="234" cy="540" r="3.5" class="solder"/>

    <!-- 10kΩ R_pulldown (R5), vertical -->
    <line x1="120" y1="600" x2="120" y2="616" class="resistor-lead"/>
    <line x1="120" y1="704" x2="120" y2="720" class="resistor-lead"/>
    <rect x="108" y="616" width="24" height="88" class="resistor-body" rx="10"/>
    <rect x="108" y="624" width="24" height="3" fill="#a52a2a" class="resistor-band"/>
    <rect x="108" y="634" width="24" height="3" fill="#000" class="resistor-band"/>
    <rect x="108" y="644" width="24" height="3" fill="#ffa500" class="resistor-band"/>
    <rect x="108" y="654" width="24" height="3" fill="#d4af37" class="resistor-band"/>
    <text x="142" y="664" class="smaller">R5  10kΩ</text>
    <circle cx="120" cy="600" r="3.5" class="solder"/>
    <circle cx="120" cy="720" r="3.5" class="solder"/>

    <!-- MOSFET Q1, TO-220 -->
    <g id="mosfet-q1">
      <rect x="226" y="600" width="80" height="58" class="mosfet-body" rx="2"/>
      <rect x="226" y="600" width="80" height="22" class="mosfet-tab"/>
      <circle cx="266" cy="610" r="4" fill="#333" stroke="#999"/>
      <text x="266" y="642" class="mosfet-txt" text-anchor="middle" font-weight="700">IRLZ34N</text>
      <text x="266" y="654" class="mosfet-txt" text-anchor="middle" font-size="8">Q1</text>
      <!-- Three leads -->
      <line x1="244" y1="658" x2="244" y2="700" class="mosfet-lead"/>
      <line x1="266" y1="658" x2="266" y2="700" class="mosfet-lead"/>
      <line x1="288" y1="658" x2="288" y2="700" class="mosfet-lead"/>
      <!-- Pin holes -->
      <circle cx="244" cy="700" r="3" class="solder"/>
      <circle cx="266" cy="700" r="3" class="solder"/>
      <circle cx="288" cy="700" r="3" class="solder"/>
      <!-- Pin labels (G/D/S) — IRLZ34N TO-220: pin1=G (left), pin2=D (centre), pin3=S (right) when facing the part front -->
      <text x="244" y="716" class="smaller" text-anchor="middle">G</text>
      <text x="266" y="716" class="smaller" text-anchor="middle">D</text>
      <text x="288" y="716" class="smaller" text-anchor="middle">S</text>
    </g>

    <!-- LED output terminal (2-pin), at bottom of channel -->
    <g id="t-ch1">
      <rect x="240" y="800" width="76" height="56" class="term"/>
      <circle cx="255" cy="820" r="6" class="term-screw"/>
      <circle cx="301" cy="820" r="6" class="term-screw"/>
      <circle cx="255" cy="850" r="2.5" fill="#444"/>
      <circle cx="301" cy="850" r="2.5" fill="#444"/>
      <text x="255" y="870" class="pwrlbl" text-anchor="middle">LED+</text>
      <text x="301" y="870" class="gndlbl" text-anchor="middle">LED−</text>
      <text x="278" y="794" class="label" text-anchor="middle" font-size="11">LED 1 OUT</text>
    </g>
  </g>

  <!-- ============ CHANNEL 2 (offset +336) ============ -->
  <g id="ch2" transform="translate(336, 0)">
    <line x1="100" y1="540" x2="116" y2="540" class="resistor-lead"/>
    <line x1="218" y1="540" x2="234" y2="540" class="resistor-lead"/>
    <rect x="116" y="528" width="102" height="24" class="resistor-body" rx="10"/>
    <rect x="128" y="528" width="3" height="24" fill="#a52a2a" class="resistor-band"/>
    <rect x="138" y="528" width="3" height="24" fill="#ffa500" class="resistor-band"/>
    <rect x="148" y="528" width="3" height="24" fill="#a52a2a" class="resistor-band"/>
    <rect x="158" y="528" width="3" height="24" fill="#d4af37" class="resistor-band"/>
    <text x="167" y="520" class="smaller" text-anchor="middle" font-weight="700">R2  330Ω</text>
    <circle cx="100" cy="540" r="3.5" class="solder"/>
    <circle cx="234" cy="540" r="3.5" class="solder"/>

    <line x1="120" y1="600" x2="120" y2="616" class="resistor-lead"/>
    <line x1="120" y1="704" x2="120" y2="720" class="resistor-lead"/>
    <rect x="108" y="616" width="24" height="88" class="resistor-body" rx="10"/>
    <rect x="108" y="624" width="24" height="3" fill="#a52a2a" class="resistor-band"/>
    <rect x="108" y="634" width="24" height="3" fill="#000" class="resistor-band"/>
    <rect x="108" y="644" width="24" height="3" fill="#ffa500" class="resistor-band"/>
    <rect x="108" y="654" width="24" height="3" fill="#d4af37" class="resistor-band"/>
    <text x="142" y="664" class="smaller">R6  10kΩ</text>
    <circle cx="120" cy="600" r="3.5" class="solder"/>
    <circle cx="120" cy="720" r="3.5" class="solder"/>

    <rect x="226" y="600" width="80" height="58" class="mosfet-body" rx="2"/>
    <rect x="226" y="600" width="80" height="22" class="mosfet-tab"/>
    <circle cx="266" cy="610" r="4" fill="#333" stroke="#999"/>
    <text x="266" y="642" class="mosfet-txt" text-anchor="middle" font-weight="700">IRLZ34N</text>
    <text x="266" y="654" class="mosfet-txt" text-anchor="middle" font-size="8">Q2</text>
    <line x1="244" y1="658" x2="244" y2="700" class="mosfet-lead"/>
    <line x1="266" y1="658" x2="266" y2="700" class="mosfet-lead"/>
    <line x1="288" y1="658" x2="288" y2="700" class="mosfet-lead"/>
    <circle cx="244" cy="700" r="3" class="solder"/>
    <circle cx="266" cy="700" r="3" class="solder"/>
    <circle cx="288" cy="700" r="3" class="solder"/>
    <text x="244" y="716" class="smaller" text-anchor="middle">G</text>
    <text x="266" y="716" class="smaller" text-anchor="middle">D</text>
    <text x="288" y="716" class="smaller" text-anchor="middle">S</text>

    <rect x="240" y="800" width="76" height="56" class="term"/>
    <circle cx="255" cy="820" r="6" class="term-screw"/>
    <circle cx="301" cy="820" r="6" class="term-screw"/>
    <circle cx="255" cy="850" r="2.5" fill="#444"/>
    <circle cx="301" cy="850" r="2.5" fill="#444"/>
    <text x="255" y="870" class="pwrlbl" text-anchor="middle">LED+</text>
    <text x="301" y="870" class="gndlbl" text-anchor="middle">LED−</text>
    <text x="278" y="794" class="label" text-anchor="middle" font-size="11">LED 2 OUT</text>
  </g>

  <!-- ============ CHANNEL 3 (offset +672) ============ -->
  <g id="ch3" transform="translate(672, 0)">
    <line x1="100" y1="540" x2="116" y2="540" class="resistor-lead"/>
    <line x1="218" y1="540" x2="234" y2="540" class="resistor-lead"/>
    <rect x="116" y="528" width="102" height="24" class="resistor-body" rx="10"/>
    <rect x="128" y="528" width="3" height="24" fill="#a52a2a" class="resistor-band"/>
    <rect x="138" y="528" width="3" height="24" fill="#ffa500" class="resistor-band"/>
    <rect x="148" y="528" width="3" height="24" fill="#a52a2a" class="resistor-band"/>
    <rect x="158" y="528" width="3" height="24" fill="#d4af37" class="resistor-band"/>
    <text x="167" y="520" class="smaller" text-anchor="middle" font-weight="700">R3  330Ω</text>
    <circle cx="100" cy="540" r="3.5" class="solder"/>
    <circle cx="234" cy="540" r="3.5" class="solder"/>

    <line x1="120" y1="600" x2="120" y2="616" class="resistor-lead"/>
    <line x1="120" y1="704" x2="120" y2="720" class="resistor-lead"/>
    <rect x="108" y="616" width="24" height="88" class="resistor-body" rx="10"/>
    <rect x="108" y="624" width="24" height="3" fill="#a52a2a" class="resistor-band"/>
    <rect x="108" y="634" width="24" height="3" fill="#000" class="resistor-band"/>
    <rect x="108" y="644" width="24" height="3" fill="#ffa500" class="resistor-band"/>
    <rect x="108" y="654" width="24" height="3" fill="#d4af37" class="resistor-band"/>
    <text x="142" y="664" class="smaller">R7  10kΩ</text>
    <circle cx="120" cy="600" r="3.5" class="solder"/>
    <circle cx="120" cy="720" r="3.5" class="solder"/>

    <rect x="226" y="600" width="80" height="58" class="mosfet-body" rx="2"/>
    <rect x="226" y="600" width="80" height="22" class="mosfet-tab"/>
    <circle cx="266" cy="610" r="4" fill="#333" stroke="#999"/>
    <text x="266" y="642" class="mosfet-txt" text-anchor="middle" font-weight="700">IRLZ34N</text>
    <text x="266" y="654" class="mosfet-txt" text-anchor="middle" font-size="8">Q3</text>
    <line x1="244" y1="658" x2="244" y2="700" class="mosfet-lead"/>
    <line x1="266" y1="658" x2="266" y2="700" class="mosfet-lead"/>
    <line x1="288" y1="658" x2="288" y2="700" class="mosfet-lead"/>
    <circle cx="244" cy="700" r="3" class="solder"/>
    <circle cx="266" cy="700" r="3" class="solder"/>
    <circle cx="288" cy="700" r="3" class="solder"/>
    <text x="244" y="716" class="smaller" text-anchor="middle">G</text>
    <text x="266" y="716" class="smaller" text-anchor="middle">D</text>
    <text x="288" y="716" class="smaller" text-anchor="middle">S</text>

    <rect x="240" y="800" width="76" height="56" class="term"/>
    <circle cx="255" cy="820" r="6" class="term-screw"/>
    <circle cx="301" cy="820" r="6" class="term-screw"/>
    <circle cx="255" cy="850" r="2.5" fill="#444"/>
    <circle cx="301" cy="850" r="2.5" fill="#444"/>
    <text x="255" y="870" class="pwrlbl" text-anchor="middle">LED+</text>
    <text x="301" y="870" class="gndlbl" text-anchor="middle">LED−</text>
    <text x="278" y="794" class="label" text-anchor="middle" font-size="11">LED 3 OUT</text>
  </g>

  <!-- ============ CHANNEL 4 (offset +1008) ============ -->
  <g id="ch4" transform="translate(1008, 0)">
    <line x1="100" y1="540" x2="116" y2="540" class="resistor-lead"/>
    <line x1="218" y1="540" x2="234" y2="540" class="resistor-lead"/>
    <rect x="116" y="528" width="102" height="24" class="resistor-body" rx="10"/>
    <rect x="128" y="528" width="3" height="24" fill="#a52a2a" class="resistor-band"/>
    <rect x="138" y="528" width="3" height="24" fill="#ffa500" class="resistor-band"/>
    <rect x="148" y="528" width="3" height="24" fill="#a52a2a" class="resistor-band"/>
    <rect x="158" y="528" width="3" height="24" fill="#d4af37" class="resistor-band"/>
    <text x="167" y="520" class="smaller" text-anchor="middle" font-weight="700">R4  330Ω</text>
    <circle cx="100" cy="540" r="3.5" class="solder"/>
    <circle cx="234" cy="540" r="3.5" class="solder"/>

    <line x1="120" y1="600" x2="120" y2="616" class="resistor-lead"/>
    <line x1="120" y1="704" x2="120" y2="720" class="resistor-lead"/>
    <rect x="108" y="616" width="24" height="88" class="resistor-body" rx="10"/>
    <rect x="108" y="624" width="24" height="3" fill="#a52a2a" class="resistor-band"/>
    <rect x="108" y="634" width="24" height="3" fill="#000" class="resistor-band"/>
    <rect x="108" y="644" width="24" height="3" fill="#ffa500" class="resistor-band"/>
    <rect x="108" y="654" width="24" height="3" fill="#d4af37" class="resistor-band"/>
    <text x="142" y="664" class="smaller">R8  10kΩ</text>
    <circle cx="120" cy="600" r="3.5" class="solder"/>
    <circle cx="120" cy="720" r="3.5" class="solder"/>

    <rect x="226" y="600" width="80" height="58" class="mosfet-body" rx="2"/>
    <rect x="226" y="600" width="80" height="22" class="mosfet-tab"/>
    <circle cx="266" cy="610" r="4" fill="#333" stroke="#999"/>
    <text x="266" y="642" class="mosfet-txt" text-anchor="middle" font-weight="700">IRLZ34N</text>
    <text x="266" y="654" class="mosfet-txt" text-anchor="middle" font-size="8">Q4</text>
    <line x1="244" y1="658" x2="244" y2="700" class="mosfet-lead"/>
    <line x1="266" y1="658" x2="266" y2="700" class="mosfet-lead"/>
    <line x1="288" y1="658" x2="288" y2="700" class="mosfet-lead"/>
    <circle cx="244" cy="700" r="3" class="solder"/>
    <circle cx="266" cy="700" r="3" class="solder"/>
    <circle cx="288" cy="700" r="3" class="solder"/>
    <text x="244" y="716" class="smaller" text-anchor="middle">G</text>
    <text x="266" y="716" class="smaller" text-anchor="middle">D</text>
    <text x="288" y="716" class="smaller" text-anchor="middle">S</text>

    <rect x="240" y="800" width="76" height="56" class="term"/>
    <circle cx="255" cy="820" r="6" class="term-screw"/>
    <circle cx="301" cy="820" r="6" class="term-screw"/>
    <circle cx="255" cy="850" r="2.5" fill="#444"/>
    <circle cx="301" cy="850" r="2.5" fill="#444"/>
    <text x="255" y="870" class="pwrlbl" text-anchor="middle">LED+</text>
    <text x="301" y="870" class="gndlbl" text-anchor="middle">LED−</text>
    <text x="278" y="794" class="label" text-anchor="middle" font-size="11">LED 4 OUT</text>
  </g>

  <!-- =================================================================== -->
  <!-- WIRES (solder these on the back of the perfboard)                   -->
  <!-- Component pad positions used (absolute SVG coords):                 -->
  <!--   12V IN +pad: (88, 184), GND pad: (116, 184)                       -->
  <!--   Buck IN+: (228, 240), IN-: (284, 240), OUT-: (340, 240), OUT+: (396, 240) -->
  <!--   ESP32 3V3: (648, 142), GND_top: (676, 142), GPIO18: (872, 142), GPIO19: (900, 142) -->
  <!--   ESP32 GPIO25: (844, 354), GPIO27: (900, 354), GND_bot: (1012, 354)-->
  <!--   Per-channel coords (channel offset added):                         -->
  <!--     R_gate left lead:   (100, 540)                                    -->
  <!--     R_gate right lead:  (234, 540)                                    -->
  <!--     R_pulldown top:     (120, 600)                                    -->
  <!--     R_pulldown bottom:  (120, 720)                                    -->
  <!--     MOSFET pin holes:   G=(244,700), D=(266,700), S=(288,700)         -->
  <!--     LED+ pad:           (255, 850)                                    -->
  <!--     LED- pad:           (301, 850)                                    -->
  <!--   Channel offsets:      Ch1=+0, Ch2=+336, Ch3=+672, Ch4=+1008          -->
  <!-- =================================================================== -->

  <!-- ===== +12V wires (red) ===== -->
  <!-- 12V IN +pad → Buck IN+ -->
  <path d="M 88,184 L 88,210 L 228,210 L 228,240" class="wire-12v"/>

  <!-- +12V rail: from 12V IN +pad → all four LED+ pads -->
  <!-- We'll route +12V along a horizontal rail at y=460 (clear of all components). -->
  <!-- Tap from 12V IN: (88, 184) down to (88, 460) → horizontal to far right -->
  <path d="M 88,184 L 88,460" class="wire-12v"/>
  <path d="M 88,460 L 1411,460" class="wire-12v"/>
  <!-- Drops from +12V rail down to each LED+ pad -->
  <path d="M 255,460 L 255,850" class="wire-12v"/>
  <path d="M 591,460 L 591,850" class="wire-12v"/>
  <path d="M 927,460 L 927,850" class="wire-12v"/>
  <path d="M 1263,460 L 1263,850" class="wire-12v"/>

  <!-- ===== +3.3V wire (orange): Buck OUT+ → ESP32 3V3 ===== -->
  <path d="M 396,240 L 396,108 L 648,108 L 648,142" class="wire-3v3"/>

  <!-- ===== GND wires (dark) ===== -->
  <!-- 12V IN GND → Buck IN- -->
  <path d="M 116,184 L 116,260 L 284,260 L 284,240" class="wire-gnd"/>
  <!-- Buck OUT- → ESP32 GND (top row) -->
  <path d="M 340,240 L 340,108 L 676,108 L 676,142" class="wire-gnd"/>
  <!-- ESP32 GND (bottom row) → GND rail -->
  <path d="M 1012,354 L 1012,420 L 1411,420" class="wire-gnd"/>
  <!-- GND rail horizontal at y=900 spanning the channel area -->
  <path d="M 76,900 L 1411,900" class="wire-gnd"/>
  <!-- Connect right end of GND-from-ESP32 (1411, 420) down to (1411, 900) -->
  <path d="M 1411,420 L 1411,900" class="wire-gnd"/>
  <!-- Per-channel: MOSFET source → GND rail. Source pad at (288+ch_off, 700) → (288+ch_off, 900) -->
  <path d="M 288,700  L 288,900"  class="wire-gnd"/>
  <path d="M 624,700  L 624,900"  class="wire-gnd"/>
  <path d="M 960,700  L 960,900"  class="wire-gnd"/>
  <path d="M 1296,700 L 1296,900" class="wire-gnd"/>
  <!-- Per-channel: R_pulldown bottom → GND rail. Pulldown bottom at (120+ch_off, 720) → drop to (120+ch_off, 900) -->
  <path d="M 120,720  L 120,900"  class="wire-gnd"/>
  <path d="M 456,720  L 456,900"  class="wire-gnd"/>
  <path d="M 792,720  L 792,900"  class="wire-gnd"/>
  <path d="M 1128,720 L 1128,900" class="wire-gnd"/>
  <!-- Per-channel: LED- pad → MOSFET drain pad. LED- (301+ch_off, 850), Drain (266+ch_off, 700) -->
  <path d="M 301,850  L 301,780 L 266,780  L 266,700"  class="wire-gnd"/>
  <path d="M 637,850  L 637,780 L 602,780  L 602,700"  class="wire-gnd"/>
  <path d="M 973,850  L 973,780 L 938,780  L 938,700"  class="wire-gnd"/>
  <path d="M 1309,850 L 1309,780 L 1274,780 L 1274,700" class="wire-gnd"/>

  <!-- ===== Signal wires (blue) ===== -->
  <!-- For each channel, the gate-junction is the right-side lead of R_pulldown (top end). We connect:
       - R_gate right-lead-pad ↔ ESP32 GPIO pad
       - R_gate left-lead-pad ↔ R_pulldown top pad ↔ MOSFET gate pad
  -->

  <!-- Channel 1: GPIO25 (844, 354) → R1 right pad (234, 540) via routed path. R1 left (100, 540) → R5 top (120, 600) → Q1 gate (244, 700) -->
  <!-- ESP32 GPIO25 down then left to (234, 540) -->
  <path d="M 844,354 L 844,400 L 234,400 L 234,540" class="wire-sig"/>
  <!-- R1 left → junction at (100, 540), then continue to R5 top (120, 600) and to Q1 gate (244, 700) -->
  <path d="M 100,540 L 100,580 L 120,580 L 120,600" class="wire-sig"/>
  <!-- From the same junction (100, 580) over and down to Q1 gate (244, 700) -->
  <path d="M 100,580 L 244,580 L 244,700" class="wire-sig"/>

  <!-- Channel 2: GPIO27 (900, 354) → R2 right pad (570, 540). R2 left (436, 540) → R6 top (456, 600) → Q2 gate (580, 700) -->
  <path d="M 900,354 L 900,420 L 570,420 L 570,540" class="wire-sig"/>
  <path d="M 436,540 L 436,580 L 456,580 L 456,600" class="wire-sig"/>
  <path d="M 436,580 L 580,580 L 580,700" class="wire-sig"/>

  <!-- Channel 3: GPIO18 (872, 142) → R3 right pad (906, 540). Need to route from top-side GPIO around the ESP32. -->
  <!-- GPIO18 → up out of top of ESP32 → right above ESP32 → down on the right side → around to R3 right pad -->
  <!-- Simpler: GPIO18 is at top of ESP32 (y=142). Route up to y=88, then right to x=1430, then down to y=540, then left to R3 right pad (906, 540). -->
  <!-- But that loops a lot. We can also drop down through the ESP32 module area — there's no actual obstacle; just dotted-routing on the back of the board. -->
  <!-- Use simpler: GPIO18 → up to y=98 → right to x=906 → down to y=540 -->
  <path d="M 872,142 L 872,98 L 906,98 L 906,540" class="wire-sig"/>
  <path d="M 772,540 L 772,580 L 792,580 L 792,600" class="wire-sig"/>
  <path d="M 772,580 L 916,580 L 916,700" class="wire-sig"/>

  <!-- Channel 4: GPIO19 (900, 142) → R4 right pad (1242, 540). -->
  <path d="M 900,142 L 900,84 L 1242,84 L 1242,540" class="wire-sig"/>
  <path d="M 1108,540 L 1108,580 L 1128,580 L 1128,600" class="wire-sig"/>
  <path d="M 1108,580 L 1252,580 L 1252,700" class="wire-sig"/>

  <!-- =================================================================== -->
  <!-- LABELS / LEGEND / NOTES                                              -->
  <!-- =================================================================== -->

  <!-- Power-rail labels -->
  <text x="1418" y="456" class="pwrlbl" text-anchor="end">+12V RAIL (to all LED+ outputs)</text>
  <text x="1418" y="894" class="gndlbl" text-anchor="end">GND RAIL</text>

  <!-- GPIO arrow labels at the signal source -->
  <text x="844" y="378" class="siglbl" text-anchor="middle">→ Ch1</text>
  <text x="900" y="378" class="siglbl" text-anchor="middle">→ Ch2</text>
  <text x="872" y="114" class="siglbl" text-anchor="middle">→ Ch3 ↑</text>
  <text x="900" y="76"  class="siglbl" text-anchor="middle">→ Ch4 ↑</text>

  <!-- Legend -->
  <g transform="translate(60, 1010)">
    <rect x="0" y="0" width="700" height="80" fill="#fff" stroke="#999"/>
    <text x="10" y="18" class="label">Wire colour legend (solder these on the back of the board)</text>
    <line x1="10"  y1="40" x2="50"  y2="40" class="wire-12v"/>
    <text x="56"  y="44" class="small">+12V</text>
    <line x1="120" y1="40" x2="160" y2="40" class="wire-3v3"/>
    <text x="166" y="44" class="small">+3.3V</text>
    <line x1="230" y1="40" x2="270" y2="40" class="wire-gnd"/>
    <text x="276" y="44" class="small">GND</text>
    <line x1="320" y1="40" x2="360" y2="40" class="wire-sig"/>
    <text x="366" y="44" class="small">GPIO signal (ESP32 → R_gate → MOSFET gate)</text>
    <text x="10" y="66" class="smaller">Tip: build and test one channel end-to-end before populating the other three. Resistors are non-polarised; MOSFETs and the buck module are.</text>
  </g>

  <!-- Bill of materials -->
  <g transform="translate(780, 1010)">
    <rect x="0" y="0" width="660" height="80" fill="#fff" stroke="#999"/>
    <text x="10" y="18" class="label">Bill of materials</text>
    <text x="10" y="36" class="small">1× ESP32-WROOM-32 DevKit (30-pin) · 1× BUNTOR (or similar) 12V→3.3V buck converter · 1× 12V/≥3A power supply</text>
    <text x="10" y="52" class="small">4× IRLZ34N N-channel logic-level MOSFET (TO-220) · 4× 330Ω 1/4W resistor (R1–R4) · 4× 10kΩ 1/4W resistor (R5–R8)</text>
    <text x="10" y="68" class="small">5× 2-pin 5.08mm screw terminal block · 1× perfboard ~80×100mm · hookup wire (24 AWG or similar)</text>
  </g>

  <!-- IRLZ34N pin orientation reminder -->
  <g transform="translate(60, 920)">
    <text x="0" y="0" class="small" font-weight="700" fill="#c0392b">⚠ IRLZ34N pinout (looking at the FRONT face with the leads pointing down): pin 1 = Gate (G), pin 2 = Drain (D), pin 3 = Source (S). Double-check before soldering.</text>
  </g>

</svg>
